# xmcd
#
# Track frame offsets: 
#        150
#        13042
#        25070
#        36437
#        48770
#        63062
#        74672
#        85430
#
# Disc length: 1326 seconds
#
# Revision: 1
# Processed by: cddbd v1.5.2PL0 Copyright (c) Steve Scherf et al.
# Submitted via: ExactAudioCopyFreeDBPlugin 1.0
#
DISCID=64052c08
DTITLE=Johnny Horton - The Legend Of Johnny Horton
DYEAR=1985
DGENRE=Country
TTITLE0=North To Alaska
TTITLE1=When It's Spring Time In Alaska [It's Forty Below]
TTITLE2=Jim Bridger Story
TTITLE3=Rock Island Line
TTITLE4=The Mansion You Stole
TTITLE5=The Battle Of New Orleans
TTITLE6=Johnny Reb
TTITLE7=Comanche [The Brave Horse]
EXTD=
EXTT0=
EXTT1=
EXTT2=
EXTT3=
EXTT4=
EXTT5=
EXTT6=
EXTT7=
PLAYORDER=
